<?xml version="1.0" standalone="no"?>
<!DOCTYPE svg PUBLIC "-//W3C//DTD SVG 1.1//EN" "http://www.w3.org/Graphics/SVG/1.1/DTD/svg11.dtd" >
<svg xmlns="http://www.w3.org/2000/svg" xmlns:xlink="http://www.w3.org/1999/xlink" version="1.1">
<metadata></metadata>
<defs>
<font id="ceragrlight" horiz-adv-x="1146" >
<font-face units-per-em="2048" ascent="1638" descent="-410" />
<missing-glyph horiz-adv-x="573" />
<glyph horiz-adv-x="0" />
<glyph unicode="&#xd;" horiz-adv-x="681" />
<glyph unicode=" "  horiz-adv-x="573" />
<glyph unicode="&#x09;" horiz-adv-x="573" />
<glyph unicode="&#xa0;" horiz-adv-x="573" />
<glyph unicode="!" horiz-adv-x="583" d="M188 78q0 45 31 74q33 29 72 28l-2 -4q39 0 71 -29q31 -29 31 -73q0 -43 -31 -70q-29 -27 -71 -27q-37 0 -70 29q-31 27 -31 72zM227 1352h127l-18 -955h-88z" />
<glyph unicode="&#x22;" horiz-adv-x="880" d="M205 846l35 506h125l-76 -506h-84zM530 846l35 506h125l-76 -506h-84z" />
<glyph unicode="#" horiz-adv-x="1189" d="M61 420v92h203l43 328h-201v92h213l58 420h94l-57 -420h432l55 420h94l-57 -420h190v-92h-202l-45 -328h202v-92h-215l-57 -420h-90l55 420h-432l-57 -420h-92l57 420h-191zM356 512h432l46 328h-433z" />
<glyph unicode="$" horiz-adv-x="1095" d="M92 324l80 55q127 -213 324 -238v523l-29 12q-29 14 -53.5 26.5t-46.5 24.5q-43 25 -86 61q-43 37 -68 91q-25 51 -25 116q0 125 86 205q88 82 220 96v242h104v-240q207 -18 330 -211l-74 -57q-106 152 -256 168v-469l61 -27q137 -66 215 -141q76 -76 76 -192v-7 q0 -137 -98 -223t-252 -98v-234h-104v236q-258 29 -404 281zM295 991q0 -84 49 -129q49 -47 148 -92v420q-86 -16 -142 -62q-55 -47 -55 -133v-4zM598 133v4q109 10 176 68q68 57 68 153q0 90 -58 142q-59 51 -172 104l-14 6v-477z" />
<glyph unicode="%" horiz-adv-x="1640" d="M111 1044q0 137 96 234q94 94 233 94h-2q137 0 232 -94q96 -96 96 -234q0 -137 -96 -233q-94 -94 -232 -94q-139 0 -233 94t-94 233zM203 1047q0 -102 67 -173q68 -70 168 -69q100 0 168 69q68 70 68 173q0 100 -68 172q-68 69 -168 69t-168 -69q-68 -72 -67 -172zM383 0 l776 1352h98l-778 -1352h-96zM870 305q0 137 97 234q94 94 231 94t232 -94q96 -96 96 -234q0 -137 -96 -233q-94 -94 -232 -95q-137 0 -231 95q-96 96 -97 233zM967 305q0 -102 65 -172q63 -68 166 -67q100 0 168 69q68 70 68 172q0 100 -68 172q-68 70 -168 70v-4 q-102 0 -166 -68q-66 -70 -65 -172z" />
<glyph unicode="&#x26;" horiz-adv-x="1236" d="M109 319q0 129 84 226q82 94 239 203q-160 193 -160 337q0 119 74 203q74 82 207 82q127 0 203 -76q78 -78 78 -190q0 -102 -68 -189q-68 -86 -193 -180l330 -393q16 20 205 309l86 -55q-174 -268 -223 -334l221 -262h-131l-154 184q-180 -205 -399 -204q-168 0 -283 94 q-117 94 -116 245zM213 326q0 -113 86 -181t207 -67l-2 -2q180 0 338 182l-350 416q-53 -41 -92.5 -70t-61.5 -49q-47 -41 -86 -100t-39 -129zM375 1085q0 -70 35 -133q33 -57 104 -149q213 158 213 299q0 76 -45 123q-47 49 -131 49v-2q-86 0 -131 -51t-45 -136z" />
<glyph unicode="'" horiz-adv-x="557" d="M205 846l35 506h125l-76 -506h-84z" />
<glyph unicode="(" horiz-adv-x="661" d="M168 614q0 197 35 361q33 158 92 260q59 104 123 164q63 61 141 98l39 -72q-330 -195 -330 -811q0 -340 97 -536q94 -193 233 -273l-43 -73q-166 80 -276 291q-111 211 -111 591z" />
<glyph unicode=")" horiz-adv-x="661" d="M59 -197q139 80 234 273q96 197 96 536q0 616 -330 811l45 74l-2 -6q76 -37 142 -98q63 -59 123 -164q59 -102 92 -260q35 -164 35 -359q0 -203 -33 -358q-33 -158 -92 -260q-59 -104 -123 -164q-66 -61 -142 -98z" />
<glyph unicode="*" horiz-adv-x="786" d="M102 1092l197 127l-197 129l35 61l209 -109l12 236h70l12 -236l209 109l37 -61l-199 -129l199 -127l-37 -62l-209 109l-12 -236h-70l-12 236l-209 -109z" />
<glyph unicode="+" d="M127 592v92h397v406h103v-406h391v-92h-391v-408h-103v408h-397z" />
<glyph unicode="," horiz-adv-x="552" d="M195 -369l34 523h127l-73 -523h-88z" />
<glyph unicode="-" horiz-adv-x="702" d="M117 592v90h467v-90h-467z" />
<glyph unicode="." horiz-adv-x="552" d="M178 78q0 45 29 74t67 28l5 -6q45 0 73 -27q31 -29 31 -73q0 -43 -31 -70q-29 -27 -73 -27q-37 0 -70 29q-31 27 -31 72z" />
<glyph unicode="/" horiz-adv-x="1224" d="M18 -248l1072 1845h116l-1071 -1845h-117z" />
<glyph unicode="0" horiz-adv-x="1255" d="M147 688q0 309 117 498q117 186 357 186l4 -2q240 0 356 -184q117 -184 117 -498q0 -311 -117 -510t-358 -198q-242 0 -359 198q-117 199 -117 510zM266 686q0 -276 86 -442t275 -166q190 0 276 166t86 442q0 586 -364 586h4q-362 0 -363 -586z" />
<glyph unicode="1" horiz-adv-x="808" d="M74 1221l401 131h43v-1352h-106v1231l-314 -103z" />
<glyph unicode="2" horiz-adv-x="1107" d="M88 -8v31l490 507q129 131 190 228q61 94 61 203q0 125 -79 215q-80 90 -215 90q-139 0 -222 -92q-82 -90 -82 -216q0 -59 15 -118h-111q-14 51 -14 123q0 158 115 282q113 123 301 123q180 0 294 -113q117 -115 117 -282q0 -133 -69 -240q-72 -109 -215 -258l-367 -379 l707 -8v-96h-916z" />
<glyph unicode="3" horiz-adv-x="1044" d="M61 246l78 55q137 -221 367 -221q160 0 256 94q98 94 98 246q0 147 -98 233t-275 86h-114v33l389 481h-612v99h784v-35l-393 -486h-4q170 0 301 -106t131 -307t-138 -320q-137 -119 -327 -118q-281 0 -443 266z" />
<glyph unicode="4" horiz-adv-x="1081" d="M49 264v35l453 1053h110l-428 -994h545v488h107v-488h206v-94h-206v-264h-107v264h-680z" />
<glyph unicode="5" horiz-adv-x="1097" d="M98 244l76 55q141 -223 377 -223q150 0 250 96q98 94 98 246q0 150 -98 235q-98 86 -277 86h-301v613h660v-97h-553v-434q104 12 215 13l4 -5q199 0 332 -104t133 -307t-137 -322t-326 -119q-291 0 -453 267z" />
<glyph unicode="6" horiz-adv-x="1118" d="M113 420v27.5t2 25.5q4 27 12 53q4 14 7 25.5t7 21.5t8.5 21.5t12.5 26.5q8 14 13 24t9 19q4 8 10.5 20t16.5 29q10 16 17.5 27.5t11.5 17.5q6 12 30 49q12 18 19.5 30.5t11.5 16.5l336 498h127l-369 -539q74 43 172 43v-2q180 0 307 -127t127 -307q0 -188 -129 -314 q-131 -127 -315 -126q-184 0 -315 126q-129 125 -129 314zM217 418q0 -147 98 -246q98 -98 244 -98l-2 2q143 0 242 98q98 98 98 244q0 145 -98 244q-98 98 -242 98q-143 0 -242 -98q-98 -98 -98 -244z" />
<glyph unicode="7" horiz-adv-x="1003" d="M68 1255v97h882v-35l-714 -1317h-115l684 1255h-737z" />
<glyph unicode="8" horiz-adv-x="1171" d="M125 338q0 250 348 371q-283 117 -283 338q0 152 113 237q113 86 283 86q168 0 282 -86q113 -86 113 -240q0 -225 -285 -331l-4 -2q350 -127 350 -375q0 -158 -124 -258q-125 -100 -334 -101q-209 0 -334 101q-125 100 -125 260zM229 342q0 -121 93 -195q92 -74 258 -73 h4q166 0 258 73q92 74 92 195q0 123 -88 190q-92 70 -264 127q-172 -57 -265 -127q-88 -68 -88 -190zM289 1047q0 -102 73 -166q72 -61 220 -119q143 55 217 117q74 61 73 163q0 109 -81 172q-82 63 -209 64q-127 0 -209 -64q-82 -63 -82 -172z" />
<glyph unicode="9" horiz-adv-x="1118" d="M113 932q0 186 129 313q131 127 317 127l-10 -4q186 0 317 -127q129 -127 129 -313v-24.5t-2 -24.5q-4 -25 -6 -43q-2 -16 -12 -45t-12 -43q-4 -16 -19 -43q-8 -14 -12 -23.5t-8 -15.5t-10.5 -16.5t-16.5 -26.5t-16.5 -25.5t-10.5 -13.5q-6 -10 -30 -43q-27 -37 -29 -43 l-336 -498h-125l369 539q-72 -41 -172 -41q-180 0 -307 127t-127 307zM209 928q0 -145 98 -244q98 -98 242 -98h-4q143 0 241 98t99 244q0 145 -97 246q-96 98 -239 98t-242 -98q-98 -98 -98 -246z" />
<glyph unicode=":" horiz-adv-x="552" d="M178 74q0 45 29 73q29 29 67 29l5 -6q45 0 73 -27q31 -29 31 -73q0 -43 -31 -70q-29 -27 -73 -27q-37 0 -70 29q-31 27 -31 72zM178 893q0 45 29 74t67 28v-4q45 0 74 -26q31 -29 31 -74q0 -47 -31 -74q-29 -27 -74 -26q-39 0 -67 28q-29 29 -29 74z" />
<glyph unicode=";" horiz-adv-x="552" d="M178 893q0 45 29 74t67 28v-4q45 0 74 -26q31 -29 31 -74q0 -47 -31 -74q-29 -27 -74 -26q-39 0 -67 28q-29 29 -29 74zM195 -373l34 523h127l-73 -523h-88z" />
<glyph unicode="&#x3c;" d="M119 623v34l872 367v-98l-684 -287l684 -285v-100z" />
<glyph unicode="=" d="M147 383v92h852v-92h-852zM147 799v94h852v-94h-852z" />
<glyph unicode="&#x3e;" d="M156 254v100l684 285l-684 287v98l872 -367v-34z" />
<glyph unicode="?" horiz-adv-x="905" d="M113 1098q35 127 127 200q92 74 219 74l-4 6q147 0 243 -94q98 -96 99 -240q0 -102 -52 -178q-53 -78 -159 -172q-27 -25 -46.5 -43t-31.5 -33q-27 -29 -43 -63q-18 -37 -19 -76q0 -29 13 -78h-94q-20 35 -21 88q0 68 41 125q39 55 129 136q35 33 59.5 57t40.5 41 q29 33 56 84q25 49 24 104q0 106 -67 174q-68 68 -168 68q-90 0 -158 -55t-98 -160zM322 84q0 45 30 74q33 29 72 28v-4q43 0 72 -26q31 -29 30 -74q0 -47 -30 -74q-29 -27 -72 -26q-39 0 -72 28q-31 27 -30 74z" />
<glyph unicode="@" horiz-adv-x="1867" d="M106 514q0 348 246 586q244 236 602 235l2 -2q342 0 572 -217q231 -219 231 -528q0 -233 -137 -371q-137 -137 -356 -137h-29v160q-47 -84 -135 -134q-90 -49 -197 -49q-174 0 -291 123t-116 305q0 182 116 306q117 123 293 122q106 0 191 -45q88 -47 133 -125v154h98 v-727q150 12 240 123q90 113 90 295q0 279 -199 465q-201 188 -504 188q-319 0 -534 -209t-215 -522q0 -311 215 -520t532 -209q150 0 283 49l23 -82q-150 -59 -316 -59q-352 0 -594 239q-244 240 -244 586zM604 487q0 -143 90 -239q89 -94 226 -94q125 0 215 86t90 252 q0 162 -90 245q-90 84 -215 84q-139 0 -228 -94q-88 -94 -88 -240z" />
<glyph unicode="A" horiz-adv-x="1359" d="M80 0l579 1372h43l578 -1372h-113l-133 322h-708l-136 -322h-110zM365 418h628l-313 764z" />
<glyph unicode="B" horiz-adv-x="1255" d="M199 0v1352h458q170 0 269 -92q98 -92 98 -238q0 -188 -156 -274h-6q137 -35 215 -130q76 -94 76 -233q0 -170 -111 -276q-113 -109 -307 -109h-536zM301 94h420v2q154 0 237 80q84 80 84 209q0 127 -84 211q-82 82 -237 82h-420v-584zM301 774h342q129 0 197 68 q67 67 67 171q0 114 -67 179q-69 65 -193 65h-4l-342 -4v-479z" />
<glyph unicode="C" horiz-adv-x="1458" d="M309 1171q201 201 492 201l-4 2q168 0 313 -74q143 -74 233 -200l-79 -64q-170 240 -465 240q-248 0 -414 -172t-166 -426t166 -426t416 -172q297 0 467 237l80 -63q-90 -127 -234 -201q-143 -73 -309 -73h-4q-291 0 -492 200q-200 200 -200 493q0 298 200 498zM309 1171 q201 201 492 201l-4 2q168 0 313 -74q143 -74 233 -200l-79 -64q-170 240 -465 240q-248 0 -414 -172t-166 -426t166 -426t416 -172q297 0 467 237l80 -63q-90 -127 -234 -201q-143 -73 -309 -73h-4q-291 0 -492 200q-200 200 -200 493q0 298 200 498z" />
<glyph unicode="D" horiz-adv-x="1425" d="M201 0v1352h381l2 -2q348 0 540 -187q195 -188 195 -485t-197 -488q-197 -190 -540 -190h-381zM309 90h275q293 0 458 166q166 166 166 418q0 254 -166 418q-163 161 -454 161h-4l-275 -4v-1159z" />
<glyph unicode="E" horiz-adv-x="1153" d="M201 0v1352h846v-97h-740v-477h576v-96h-576v-586h764v-96h-870z" />
<glyph unicode="F" horiz-adv-x="1060" d="M201 0v1352h825v-97h-719v-522h598v-96h-598v-637h-106z" />
<glyph unicode="G" horiz-adv-x="1525" d="M309 1171q201 201 492 201h4q168 0 307 -69q141 -72 234 -197l-80 -64q-170 233 -459 234q-250 0 -416 -172t-166 -426q0 -256 166 -428t420 -172q156 0 287 72q127 70 205 194v223h-498v99h604v-344q-90 -160 -252 -252q-164 -92 -356 -93q-293 0 -492 203 q-200 204 -200 493q0 298 200 498z" />
<glyph unicode="H" horiz-adv-x="1445" d="M201 0v1352h106v-574h832v574h106v-1352h-106v682h-832v-682h-106z" />
<glyph unicode="I" horiz-adv-x="505" d="M201 0v1352h106v-1352h-106z" />
<glyph unicode="J" horiz-adv-x="749" d="M57 0v94q39 -8 77 -11t75 -3q111 0 174 47q61 45 61 172v1053h107v-1061q0 -160 -88 -236q-87 -75 -236 -75h-4q-84 0 -166 20z" />
<glyph unicode="K" horiz-adv-x="1255" d="M201 0v1352h106v-1352h-106zM336 731l655 621h142l-654 -623l703 -729h-138z" />
<glyph unicode="L" horiz-adv-x="1021" d="M201 0v1352h106v-1256h666v-96h-772z" />
<glyph unicode="M" horiz-adv-x="1607" d="M201 0v1372h41l561 -805l563 805h41v-1372h-107v1100l-475 -678h-41l-477 678v-1100h-106z" />
<glyph unicode="N" horiz-adv-x="1445" d="M201 0v1372h41l897 -1151v1131h106v-1372h-43l-895 1146v-1126h-106z" />
<glyph unicode="O" horiz-adv-x="1603" d="M309 1171q201 201 492 201q285 0 491 -203q203 -201 203 -495q0 -291 -203 -494t-491 -203q-293 0 -492 203q-200 204 -200 493q0 298 200 498zM219 676q0 -254 166 -426t416 -172q248 0 413 172q166 172 166 426q0 252 -166 424q-168 174 -411 174h-2q-250 0 -416 -172 t-166 -426z" />
<glyph unicode="P" horiz-adv-x="1155" d="M201 0v1352h458h3q188 0 299 -105q110 -103 110 -263q0 -169 -110 -273q-111 -104 -302 -105h-352v-606h-106zM307 698h348q143 0 226 78q80 76 80 201q0 123 -80 201q-81 77 -220 77h-4l-350 -4v-553z" />
<glyph unicode="Q" horiz-adv-x="1603" d="M311 1171q201 201 492 201q287 0 491 -201q203 -201 203 -495q0 -188 -88 -344t-240 -248q293 -391 746 -391l-2 -2q100 0 203 12v-86q-59 -10 -110.5 -15t-98.5 -5q-508 0 -824 438q-129 -57 -280 -58q-293 0 -492 203q-200 204 -200 493q0 298 200 498zM219 676 q0 -254 166 -426t416 -172q248 0 413 172q166 172 166 426t-166 426t-415 172q-248 0 -414 -172t-166 -426z" />
<glyph unicode="R" horiz-adv-x="1257" d="M201 -2v1352h458q188 0 299 -105q111 -104 111 -266q0 -143 -82 -240q-82 -96 -227 -125l457 -614l-125 -2l-455 606h-330v-606h-106zM305 696h348q143 0 226 78q79 75 79 198q0 126 -79 204q-81 77 -220 77h-4h-348z" />
<glyph unicode="S" horiz-adv-x="1138" d="M92 264l80 60q156 -246 408 -246q135 0 221 67q86 68 86 189q0 102 -58 158q-61 57 -192 120l-154 74q-145 68 -221 143q-78 78 -78 209q0 154 115 244t281 90h6q66 0 118 -19.5t105 -47.5q106 -59 170 -156l-78 -59q-123 176 -328 176q-115 0 -196 -58q-84 -59 -84 -172 q0 -49 16 -92q14 -37 53 -70q35 -29 72 -49q33 -18 98 -49l152 -74q164 -78 238 -157q73 -79 73 -208q0 -163 -118 -261q-121 -98 -302 -99q-152 0 -278 78q-125 76 -205 209z" />
<glyph unicode="T" horiz-adv-x="1193" d="M49 1255v97h1096v-97h-496v-1255h-106v1255h-494z" />
<glyph unicode="U" horiz-adv-x="1398" d="M176 524v828h107v-832q0 -211 114 -325q115 -115 301 -115q184 0 299 115t115 325v832h107l-7 -828q0 -256 -141 -399q-141 -145 -375 -145q-238 0 -379 145q-141 143 -141 399z" />
<glyph unicode="V" horiz-adv-x="1359" d="M80 1352h115l485 -1168l485 1168h115l-578 -1372h-43z" />
<glyph unicode="W" horiz-adv-x="2195" d="M104 1352h115l410 -1153l448 1173h41l449 -1173l411 1153h113l-500 -1372h-43l-450 1181l-451 -1181h-43z" />
<glyph unicode="X" horiz-adv-x="1204" d="M74 0l469 694l-437 658h123l375 -572l369 572h123l-430 -660l464 -692h-122l-406 604l-405 -604h-123z" />
<glyph unicode="Y" horiz-adv-x="1255" d="M104 1352h117l406 -678l407 678h117l-471 -779v-573h-107v573z" />
<glyph unicode="Z" horiz-adv-x="1208" d="M78 0v35l885 1220h-797v97h962v-35l-886 -1221h888v-96h-1052z" />
<glyph unicode="[" horiz-adv-x="696" d="M219 -268v1761h363v-92h-260v-1575h260v-94h-363z" />
<glyph unicode="\" horiz-adv-x="1224" d="M18 1597h117l1071 -1845h-116z" />
<glyph unicode="]" horiz-adv-x="696" d="M115 -174h260v1575h-260v92h360v-1761h-360v94z" />
<glyph unicode="^" horiz-adv-x="1026" d="M133 592l359 780h43l358 -780h-109l-270 592l-270 -592h-111z" />
<glyph unicode="_" horiz-adv-x="1030" d="M96 -164h836v-90h-836v90z" />
<glyph unicode="a" horiz-adv-x="1067" d="M96 250q0 121 94 190q96 72 252 72h344v113q0 141 -73 215q-73 73 -196 73h-3q-172 0 -301 -165l-72 57q143 205 381 205l-4 2q170 0 270 -101q102 -102 103 -288v-621h-98v154q-119 -174 -357 -174q-141 0 -241 71q-98 70 -99 197zM203 254q0 -88 71 -135 q72 -47 172 -47l3 -4q139 0 237 86t98 213v55h-333q-121 0 -185 -43q-63 -43 -63 -125z" />
<glyph unicode="b" horiz-adv-x="1298" d="M190 2v1536h103v-737q57 98 166 153q106 55 233 56l2 2q209 0 350 -150q141 -152 142 -368q0 -217 -142 -365q-141 -147 -350 -147q-127 0 -239 59q-111 57 -166 160v-199h-99zM293 498q0 -205 115 -314q113 -106 276 -106l-2 -2q172 0 283 121q110 118 110 298 q0 181 -110 302q-111 121 -283 121q-164 0 -276 -107q-113 -106 -113 -313z" />
<glyph unicode="c" horiz-adv-x="1130" d="M117 496q0 213 147 364q147 150 363 150h-2q246 0 399 -207l-74 -60q-127 166 -325 166q-172 0 -289 -121t-117 -294q0 -180 117 -299q117 -121 289 -121q199 0 327 166l74 -60q-152 -203 -401 -203q-213 0 -361 152q-147 150 -147 367z" />
<glyph unicode="d" horiz-adv-x="1298" d="M113 489q0 217 141 369q141 150 352 150q125 0 234 -56q106 -55 166 -153v737l102 -4v-1536h-98v199q-55 -102 -166 -160q-113 -59 -240 -60q-209 0 -350 148q-141 147 -141 366zM223 492q0 -182 111 -302q110 -118 279 -118h3l-2 -4q164 0 277 106q115 109 115 313 q0 207 -113 314q-113 106 -277 106q-172 0 -282 -119q-111 -121 -111 -296z" />
<glyph unicode="e" horiz-adv-x="1171" d="M113 494q0 215 145 366q145 152 354 152q186 0 316 -123q129 -123 129 -320h-4q0 -68 -9 -98h-825q8 -174 123 -285q112 -110 280 -110h3q199 0 329 155l66 -67q-158 -184 -397 -184q-215 0 -363 147q-147 147 -147 367zM223 563h723v18q0 149 -94 238q-102 96 -246 96 l4 -2q-152 0 -258 -98q-109 -98 -129 -252z" />
<glyph unicode="f" horiz-adv-x="581" d="M63 895v94h144v271q0 154 80 225q81 71 215 71h4q57 0 110 -12v-90q-41 8 -92 8q-215 0 -215 -207v-266h260v-94h-260v-895h-102v895h-144z" />
<glyph unicode="g" horiz-adv-x="1310" d="M127 506q0 211 141 358t348 148q127 0 240 -60q111 -59 166 -159v196h100v-901q0 -221 -131 -350q-133 -129 -344 -129q-135 0 -258 53q-119 51 -196 139l63 70q166 -166 389 -166q168 0 270 98t103 279v129q-59 -96 -166 -152q-109 -55 -234 -55q-209 0 -350 146 q-141 143 -141 356zM348 217q113 -117 285 -117h-4q160 0 274 105q115 104 115 303t-115 303t-270 104q-172 0 -285 -116q-112 -114 -112 -288q0 -179 112 -294z" />
<glyph unicode="h" horiz-adv-x="1142" d="M190 0v1536h103v-682q104 156 313 156h-4q170 0 264 -107q96 -109 97 -278v-625h-103v616q0 131 -74 215q-74 82 -200 82q-127 0 -211 -84q-82 -82 -82 -213v-616h-103z" />
<glyph unicode="i" horiz-adv-x="483" d="M176 1434q24 26 63 26h3h-4q41 0 65 -26q25 -29 25 -64q0 -37 -25 -63q-25 -27 -63 -27q-39 0 -64 27q-24 26 -24 60q0 38 24 67zM186 0v989h103v-989h-103z" />
<glyph unicode="j" horiz-adv-x="483" d="M-121 -287q41 -8 92 -8q215 0 215 207v1077h103l-2 -1081q0 -156 -80 -225q-82 -72 -217 -72q-59 0 -111 12v90zM176 1434q24 26 63 26h3h-4q41 0 65 -26q25 -29 25 -64q0 -37 -25 -63q-25 -27 -63 -27q-39 0 -64 27q-24 26 -24 60q0 38 24 67z" />
<glyph unicode="k" horiz-adv-x="987" d="M190 0v1536h103v-1536h-103zM324 557l444 432h139l-452 -434l497 -555h-135z" />
<glyph unicode="l" horiz-adv-x="483" d="M190 0v1536h103v-1536h-103z" />
<glyph unicode="m" horiz-adv-x="1773" d="M190 0v989h99v-129q104 150 305 150q229 0 311 -193q51 88 137 139q90 53 205 54l-2 -2q166 0 258 -105q92 -104 92 -278v-625h-104v616q0 133 -70 215t-192 82q-125 0 -205 -82q-80 -84 -80 -198v-633h-102v616q0 133 -70 215t-192 82q-127 0 -207 -84t-80 -213v-616 h-103z" />
<glyph unicode="n" horiz-adv-x="1142" d="M193 0v989h98v-133q106 154 313 154v-4q170 0 264 -107q96 -109 97 -278v-625h-103v618q0 131 -74 215q-74 82 -200 82q-127 0 -211 -84q-82 -82 -82 -209v-618h-102z" />
<glyph unicode="o" horiz-adv-x="1253" d="M117 496q0 219 147 366q148 148 363 148q209 0 362 -150q150 -147 150 -364q0 -219 -150 -369t-364 -150q-213 0 -361 150q-147 150 -147 369zM221 492q0 -178 117 -297t289 -119t288 121q117 119 117 295q0 178 -117 299q-116 120 -285 120h-3h2q-174 0 -291 -120 q-117 -121 -117 -299z" />
<glyph unicode="p" horiz-adv-x="1298" d="M188 -369v1358h99v-198q55 100 166 159q113 59 239 60l-2 2q209 0 350 -148q141 -147 142 -364q0 -219 -142 -369q-140 -149 -347 -149h-3q-127 0 -233 55q-109 55 -166 153v-559h-103zM403 184q113 -106 277 -106l-2 -2q172 0 283 121q110 118 110 296v3q0 180 -110 301 q-111 121 -283 121q-164 0 -277 -107q-112 -105 -112 -309q0 -209 114 -318z" />
<glyph unicode="q" horiz-adv-x="1298" d="M113 496q0 219 141 366t350 148q127 0 240 -60q111 -59 166 -159v198l98 -4v-1358h-102v559q-59 -98 -166 -153q-109 -55 -234 -56q-211 0 -352 150t-141 369zM223 487q0 -178 111 -297q110 -118 279 -118h3v-4q164 0 277 106q115 109 115 313q0 207 -113 314 q-113 106 -277 106q-168 0 -282 -121q-113 -119 -113 -299z" />
<glyph unicode="r" horiz-adv-x="716" d="M190 0v989h99v-166q111 172 327 172h-2q8 0 64 -6v-90h-51q-133 0 -234 -86q-100 -86 -100 -231v-582h-103z" />
<glyph unicode="s" horiz-adv-x="931" d="M90 182l72 68q139 -176 309 -176q96 0 160 45q63 45 63 129q0 39 -12 69q-12 31 -49 56t-62 37t-79 36l-91 39q-119 51 -180 111q-61 57 -61 154q0 119 92 190q90 70 223 70h-2q197 0 320 -158l-68 -66q-115 127 -258 127q-86 0 -143 -39t-58 -116q0 -63 43 -101 q43 -37 144 -79l92 -41q127 -55 190 -119q66 -66 66 -166q0 -131 -96 -203t-234 -72q-238 0 -381 205z" />
<glyph unicode="t" horiz-adv-x="743" d="M57 895v94h172v281h105v-281h319v-94h-319v-614q0 -207 215 -207h2q53 0 135 16v-90q-74 -20 -154 -20q-137 0 -221 71q-82 70 -82 225v619h-172z" />
<glyph unicode="u" horiz-adv-x="1128" d="M176 375v614h103v-618q0 -135 81 -215q82 -80 205 -80q119 0 203 80q82 80 82 215v618h102v-614q0 -180 -110 -287q-112 -108 -274 -108h-3q-166 0 -278 108q-111 106 -111 287z" />
<glyph unicode="v" horiz-adv-x="1079" d="M66 989h110l365 -833l362 833h111l-451 -1009h-43z" />
<glyph unicode="w" horiz-adv-x="1730" d="M66 989h110l311 -821l357 842h43l358 -838l309 817h111l-397 -1009h-43l-361 833l-358 -833h-41z" />
<glyph unicode="x" horiz-adv-x="983" d="M53 0l377 518l-346 471h123l285 -395l284 395h123l-348 -471l379 -518h-123l-318 438l-313 -438h-123z" />
<glyph unicode="y" horiz-adv-x="1079" d="M66 989h112l367 -850l358 850h113l-494 -1151q-98 -227 -309 -227q-72 0 -139 18v90q59 -14 123 -14q156 0 229 170l63 145z" />
<glyph unicode="z" horiz-adv-x="921" d="M68 0v35l620 860h-573v94h731v-35l-621 -860h631v-94h-788z" />
<glyph unicode="{" horiz-adv-x="808" d="M117 567v95h116q133 0 134 131q0 23 -7.5 72.5t-21.5 129.5t-21.5 138.5t-7.5 95.5q0 264 275 264h110v-92h-98v4q-186 0 -186 -193q0 -33 7 -86t21 -131t21.5 -129t7.5 -80q0 -129 -117 -172q117 -41 117 -172q0 -51 -29 -206q-29 -156 -28 -216q0 -195 186 -194h98v-92 h-110q-274 0 -275 266q0 72 29 233q29 162 29 203q0 131 -134 131h-116z" />
<glyph unicode="|" horiz-adv-x="679" d="M293 -248v1845h94v-1845h-94z" />
<glyph unicode="}" horiz-adv-x="808" d="M115 -182h98q186 0 186 194q0 59 -28 215q-29 156 -29 207q0 131 115 172q-59 20 -86 62q-29 41 -29 112q0 29 7 80t22 129q14 78 21 131.5t7 85.5q0 193 -186 193h-98v92h108q274 0 275 -264q0 -37 -7.5 -95.5t-21.5 -138.5t-21.5 -130t-7.5 -72q0 -131 135 -132l117 -6 v-94h-117q-135 0 -135 -131q0 -41 29 -203t29 -233q0 -266 -275 -266h-108v92z" />
<glyph unicode="~" d="M147 580v30q0 74 48 131q45 55 122 56l-2 -2q76 0 172 -60l199 -121q86 -49 131 -49q39 0 62 29t22 68v43h90q4 -12 4 -50q0 -74 -47 -131q-47 -55 -123 -55t-172 59l-198 119q-78 51 -131 51q-41 0 -62 -26q-23 -29 -22 -70v-41h-90z" />
<glyph unicode="&#xa2;" horiz-adv-x="1134" d="M76 672q0 197 127 342q125 143 313 172v352h105v-350q229 -16 368 -203l-74 -59q-115 150 -294 166v-836h-3q174 14 295 166l72 -60q-135 -186 -367 -202v-348h-104v350q-188 27 -313 172q-125 143 -125 338zM182 674v4q0 -156 92 -272q90 -115 238 -144v828 q-147 -29 -238 -144q-92 -117 -92 -272z" />
<glyph unicode="&#xa3;" horiz-adv-x="1042" d="M125 2v31q274 160 274 395q0 39 -10 90h-244v94h211l-23.5 47t-37.5 74q-47 86 -68 154q-23 72 -22 141q0 152 102 248q100 94 264 94q147 0 248 -82q102 -84 148 -235l-97 -33q-80 252 -295 252q-121 0 -188 -74q-68 -74 -68 -184q0 -66 25 -129q27 -68 68 -146 q43 -80 61 -129h330v-94h-303q4 -23 7 -44t3 -44l-4 2q0 -209 -160 -334h600v-94h-821z" />
<glyph unicode="&#xa5;" horiz-adv-x="1089" d="M23 1352h116l406 -572l405 572h119l-455 -639h398v-92h-414v-224h414v-92h-414v-305h-106v305h-412v92h412v224h-412v92h395z" />
<glyph unicode="&#xa8;" horiz-adv-x="708" d="M61 1372q0 37 27 62q27 24 62 24q37 0 61 -24q25 -25 25 -62q0 -35 -25 -59q-25 -25 -61 -25q-35 0 -62 25t-27 59zM471 1372q0 37 27 62q26 24 61 24t64 -24q27 -25 26 -62q0 -35 -26 -59q-29 -25 -64 -25t-61 25q-27 25 -27 59z" />
<glyph unicode="&#xa9;" horiz-adv-x="1603" d="M106 676q0 295 203 495q205 201 492 201l-2 -2q287 0 491 -201q203 -201 203 -495q0 -291 -203 -494t-489 -203q-289 0 -492 203t-203 496zM193 674q0 -262 174 -438q174 -178 430 -179q254 0 430 179q176 180 176 440q0 262 -174 436q-176 176 -430 176l-2 -4 q-256 0 -430 -174t-174 -436zM414 670q0 170 116 286q117 117 285 117l-2 -2q193 0 313 -158l-67 -59q-98 125 -246 125q-129 0 -215 -88q-86 -90 -86 -221t86 -219q86 -90 213 -91q145 0 248 123l67 -57q-121 -158 -313 -158q-166 0 -283 117t-116 285z" />
<glyph unicode="&#xab;" horiz-adv-x="942" d="M88 535v34l346 367l70 -62l-295 -321l295 -326l-70 -59zM436 535v34l346 367l72 -62l-297 -321l297 -326l-72 -59z" />
<glyph unicode="&#xad;" horiz-adv-x="702" d="M117 592v90h467v-90h-467z" />
<glyph unicode="&#xae;" horiz-adv-x="1165" d="M100 889q0 203 142 348q141 145 342 145l4 -4q201 0 342 -143q141 -145 141 -346q0 -203 -141 -346t-342 -144q-199 0 -344 146q-143 143 -144 344zM184 885q0 -170 117 -289t287 -119v-4q170 0 286 119q117 119 117 291q0 174 -117 295t-286 120q-170 0 -287 -118 q-117 -121 -117 -295zM401 1139h199q80 0 129 -43t49 -115v-2q0 -104 -94 -143l160 -211h-103l-149 194h-103v-194h-86zM487 895l111 -4q43 0 68 24q25 25 24 60q0 39 -24 63q-25 25 -68 25h-111v-168z" />
<glyph unicode="&#xbb;" horiz-adv-x="942" d="M90 227l295 326l-295 321l70 62l346 -367v-34l-346 -367zM438 227l295 326l-295 321l70 62l348 -367v-34l-348 -367z" />
<glyph unicode="&#xc7;" horiz-adv-x="1458" d="M109 676q0 295 200 495q201 201 492 201l-4 2q168 0 313 -74q143 -74 233 -200l-79 -64q-170 240 -465 240q-248 0 -414 -172t-166 -426t166 -426t416 -172q297 0 467 237l80 -63q-90 -127 -234 -201q-145 -74 -313 -73q-291 0 -492 200q-201 201 -200 496zM530 -379 l7 57q57 -14 102 -14q63 0 98 28.5t35 67.5q0 74 -147 74l96 146l80 2l-53 -113q47 0 78.5 -31t31.5 -82q0 -61 -52 -105t-157 -44q-31 0 -60.5 4t-43.5 8z" />
<glyph unicode="&#xd6;" horiz-adv-x="1603" d="M109 676q0 295 200 495q201 201 492 201q285 0 491 -203q203 -201 203 -495q0 -291 -203 -494t-491 -203q-293 0 -492 203q-201 205 -200 496zM219 676q0 -254 166 -426t416 -172q248 0 413 172q166 172 166 426q0 252 -166 424q-168 174 -411 174h-2q-250 0 -416 -172 t-166 -426zM510 1653q0 33 25 61q25 27 63 27h-4q39 0 63 -27q25 -29 25 -61q0 -37 -25 -64q-25 -25 -61 -24q-37 0 -61 24q-25 27 -25 64zM920 1653q0 33 24 61q25 27 64 27h-4q39 0 63 -27q25 -29 25 -61q0 -37 -25 -64q-25 -25 -61 -24q-37 0 -62 24q-25 27 -24 64z" />
<glyph unicode="&#xdc;" horiz-adv-x="1398" d="M176 524v828h107v-832q0 -211 114 -325q115 -115 301 -115q184 0 299 115t115 325v832h107l-7 -828q0 -256 -141 -399q-141 -145 -375 -145q-238 0 -379 145q-141 143 -141 399zM410 1653q0 33 24 61q25 27 64 27h-4q39 0 63 -27q25 -29 25 -61q0 -37 -25 -64 q-25 -25 -61 -24q-37 0 -62 24q-25 27 -24 64zM819 1653q0 33 25 61q25 27 63 27h-4q39 0 64 -27q25 -29 24 -61q0 -37 -24 -64q-25 -25 -62 -24q-37 0 -61 24q-25 27 -25 64z" />
<glyph unicode="&#xe7;" horiz-adv-x="1130" d="M117 496q0 213 147 364q147 150 363 150h-2q246 0 399 -207l-74 -60q-127 166 -325 166q-172 0 -289 -121t-117 -294q0 -180 117 -299q117 -121 289 -121q199 0 327 166l74 -60q-152 -203 -401 -203q-213 0 -361 152q-147 150 -147 367zM369 -379l6 57q57 -14 102 -14 q63 0 98 28.5t35 67.5q0 74 -147 74l96 146l80 2l-53 -113q47 0 78.5 -31t31.5 -82q0 -61 -52 -105t-157 -44q-31 0 -60.5 4t-43.5 8z" />
<glyph unicode="&#xf6;" horiz-adv-x="1253" d="M117 496q0 219 147 366q148 148 363 148q209 0 362 -150q150 -147 150 -364q0 -219 -150 -369t-364 -150q-213 0 -361 150q-147 150 -147 369zM221 492q0 -178 117 -297t289 -119t288 121q117 119 117 295q0 178 -117 299t-288 120h2q-174 0 -291 -120 q-117 -121 -117 -299zM332 1374q0 33 24 62q25 27 64 26h-4q39 0 63 -26q25 -29 25 -62q0 -37 -25 -63q-25 -25 -61 -25q-37 0 -62 25q-25 27 -24 63zM741 1374q0 33 25 62q25 27 63 26h-4q39 0 64 -26q25 -29 24 -62q0 -37 -24 -63q-25 -25 -62 -25t-61 25q-25 27 -25 63z " />
<glyph unicode="&#xfc;" horiz-adv-x="1128" d="M176 375v614h103v-618q0 -135 81 -215q82 -80 205 -80q119 0 203 80q82 80 82 215v618h102v-614q0 -180 -110 -287q-113 -109 -277 -108q-166 0 -278 108q-111 106 -111 287zM270 1370q0 33 25 62q25 27 63 26h-4q39 0 64 -26q25 -29 24 -62q0 -37 -24 -63 q-25 -25 -62 -25t-61 25q-25 27 -25 63zM680 1370q0 33 25 62q25 27 63 26h-4q39 0 63 -26q25 -29 25 -62q0 -37 -25 -63q-25 -25 -61 -25q-37 0 -61 25q-25 27 -25 63z" />
<glyph unicode="&#x11e;" horiz-adv-x="1525" d="M109 676q0 295 200 495q201 201 492 201h4q168 0 307 -69q141 -72 234 -197l-80 -64q-170 233 -459 234q-250 0 -416 -172t-166 -426q0 -256 166 -428t420 -172q156 0 287 72q127 70 205 194v223h-498v99h604v-344q-90 -160 -252 -252q-164 -92 -356 -93q-293 0 -492 203 q-201 205 -200 496zM461 1782l84 8q18 -188 219 -188q197 0 219 188l84 -8q-10 -135 -91 -202t-212 -67q-135 0 -214 67t-89 202z" />
<glyph unicode="&#x11f;" horiz-adv-x="1310" d="M127 506q0 211 141 358t348 148q127 0 240 -60q111 -59 166 -159v196h100v-901q0 -221 -131 -350q-133 -129 -344 -129q-135 0 -258 53q-119 51 -196 139l63 70q166 -166 389 -166q168 0 270 98t103 279v129q-59 -96 -166 -152q-109 -55 -234 -55q-209 0 -350 146 q-141 143 -141 356zM236 508q0 -176 112 -291q113 -117 285 -117h-4q160 0 274 105q115 104 115 303t-115 303t-270 104q-172 0 -285 -116q-113 -115 -112 -291zM330 1452l84 8q18 -188 219 -188q197 0 219 188l84 -8q-10 -135 -91 -201.5t-212 -66.5q-135 0 -214 66.5 t-89 201.5z" />
<glyph unicode="&#x130;" horiz-adv-x="505" d="M168 1731q0 35 25 63q25 27 65 27h-4q41 0 65 -27q25 -29 25 -63q0 -37 -25 -64t-63 -27q-39 0 -63 27q-25 27 -25 64zM201 0v1352h106v-1352h-106z" />
<glyph unicode="&#x131;" horiz-adv-x="483" d="M186 0v989h103v-989h-103z" />
<glyph unicode="&#x15e;" horiz-adv-x="1138" d="M92 264l80 60q156 -246 408 -246q135 0 221 67q86 68 86 189q0 102 -58 158q-61 57 -192 120l-154 74q-145 68 -221 143q-78 78 -78 209q0 154 115 244t281 90h6q66 0 118 -19.5t105 -47.5q106 -59 170 -156l-78 -59q-123 176 -328 176q-115 0 -196 -58q-84 -59 -84 -172 q0 -49 16 -92q14 -37 53 -70q35 -29 72 -49q33 -18 98 -49l152 -74q164 -78 238 -157q74 -80 73 -211q0 -160 -118 -258q-121 -98 -302 -99q-152 0 -278 78q-125 76 -205 209zM362 -379l7 57q57 -14 102 -14q63 0 98 28.5t35 67.5q0 74 -147 74l96 146l80 2l-53 -113 q47 0 78.5 -31t31.5 -82q0 -61 -52 -105t-157 -44q-31 0 -60.5 4t-43.5 8z" />
<glyph unicode="&#x15f;" horiz-adv-x="931" d="M90 182l72 68q139 -176 309 -176q96 0 160 45q63 45 63 129q0 39 -12 69q-12 31 -49 56t-62 37t-79 36l-91 39q-119 51 -180 111q-61 57 -61 154q0 119 92 190q90 70 223 70h-2q197 0 320 -158l-68 -66q-115 127 -258 127q-86 0 -143 -39t-58 -116q0 -63 43 -101 q43 -37 144 -79l92 -41q127 -55 190 -119q66 -66 66 -166q0 -131 -96 -203t-234 -72q-238 0 -381 205zM240 -379l6 57q57 -14 102 -14q63 0 98 28.5t35 67.5q0 74 -147 74l96 146l80 2l-53 -113q47 0 78.5 -31t31.5 -82q0 -61 -52 -105t-157 -44q-31 0 -60.5 4t-43.5 8z" />
<glyph unicode="&#x2000;" horiz-adv-x="910" />
<glyph unicode="&#x2001;" horiz-adv-x="1821" />
<glyph unicode="&#x2002;" horiz-adv-x="910" />
<glyph unicode="&#x2003;" horiz-adv-x="1821" />
<glyph unicode="&#x2004;" horiz-adv-x="607" />
<glyph unicode="&#x2005;" horiz-adv-x="455" />
<glyph unicode="&#x2006;" horiz-adv-x="303" />
<glyph unicode="&#x2007;" horiz-adv-x="303" />
<glyph unicode="&#x2008;" horiz-adv-x="227" />
<glyph unicode="&#x2009;" horiz-adv-x="364" />
<glyph unicode="&#x200a;" horiz-adv-x="101" />
<glyph unicode="&#x2010;" horiz-adv-x="702" d="M117 592v90h467v-90h-467z" />
<glyph unicode="&#x2011;" horiz-adv-x="702" d="M117 592v90h467v-90h-467z" />
<glyph unicode="&#x2012;" horiz-adv-x="702" d="M117 592v90h467v-90h-467z" />
<glyph unicode="&#x2013;" horiz-adv-x="1030" d="M96 592v90h836v-90h-836z" />
<glyph unicode="&#x2014;" horiz-adv-x="2048" d="M102 592v90h1844v-90h-1844z" />
<glyph unicode="&#x2018;" horiz-adv-x="557" d="M193 846l75 506h84l-35 -506h-124z" />
<glyph unicode="&#x2019;" horiz-adv-x="557" d="M205 846l35 506h125l-76 -506h-84z" />
<glyph unicode="&#x201a;" horiz-adv-x="557" d="M205 -354l35 508h125l-76 -508h-84z" />
<glyph unicode="&#x201c;" horiz-adv-x="880" d="M193 846l75 506h84l-35 -506h-124zM516 846l78 506h84l-35 -506h-127z" />
<glyph unicode="&#x201d;" horiz-adv-x="880" d="M205 846l35 506h125l-76 -506h-84zM530 846l35 506h125l-76 -506h-84z" />
<glyph unicode="&#x201e;" horiz-adv-x="880" d="M205 -354l35 508h125l-76 -508h-84zM530 -354l35 508h125l-76 -508h-84z" />
<glyph unicode="&#x2026;" horiz-adv-x="1552" d="M178 78q0 45 29 74t67 28l5 -6q45 0 73 -27q31 -29 31 -73q0 -43 -31 -70q-29 -27 -73 -27q-37 0 -70 29q-31 27 -31 72zM678 72q0 45 31 73q33 29 71 29l-2 -4q39 0 72 -29q31 -29 31 -73q0 -43 -31 -70q-29 -27 -72 -27q-37 0 -69 29q-31 27 -31 72zM1176 68 q0 45 30 73q33 29 72 29l-2 -4q39 0 72 -29q31 -29 30 -74q0 -43 -30 -69q-29 -27 -72 -27q-37 0 -70 29q-31 27 -30 72z" />
<glyph unicode="&#x202f;" horiz-adv-x="364" />
<glyph unicode="&#x2039;" horiz-adv-x="593" d="M88 535v34l346 367l70 -62l-295 -321l295 -326l-70 -59z" />
<glyph unicode="&#x203a;" horiz-adv-x="593" d="M90 227l295 326l-295 321l70 62l346 -367v-34l-346 -367z" />
<glyph unicode="&#x205f;" horiz-adv-x="455" />
<glyph unicode="&#x20ac;" horiz-adv-x="1398" d="M12 467v94h209q-4 25 -6 52.5t-2 60.5q0 51 6 104h-203v92h220q51 223 215 363q162 137 393 137q293 0 442 -205l-76 -63q-129 170 -362 170q-188 0 -320 -109q-129 -106 -178 -293h654l-25 -92h-645q-6 -53 -6 -104q0 -57 6 -113h584l-25 -94h-539q49 -178 178 -283 q129 -104 318 -104l-4 -4q233 0 362 168l76 -64q-150 -205 -442 -205q-229 0 -389 136q-160 135 -215 356h-226z" />
<glyph unicode="&#x2122;" horiz-adv-x="1941" d="M29 1266v86h753v-86h-329v-834h-95v834h-329zM950 432v934h35l385 -537l383 537h35v-934h-96v696l-306 -428h-34l-305 428v-696h-97z" />
<glyph unicode="&#x25fc;" horiz-adv-x="993" d="M0 0v993h993v-993h-993z" />
</font>
</defs>
</svg>
